<mxfile host="app.diagrams.net" modified="2023-09-01T21:01:57.755Z" agent="Mozilla/5.0 (Windows NT 10.0; Win64; x64) AppleWebKit/537.36 (KHTML, like Gecko) Chrome/116.0.0.0 Safari/537.36" etag="yxOCAIQLSx1TDy-0PVoO" version="21.7.1" type="github">
  <diagram name="Page-1" id="e7e014a7-5840-1c2e-5031-d8a46d1fe8dd">
    <mxGraphModel dx="1194" dy="567" grid="1" gridSize="10" guides="1" tooltips="1" connect="1" arrows="1" fold="1" page="1" pageScale="1" pageWidth="1169" pageHeight="826" background="none" math="0" shadow="0">
      <root>
        <mxCell id="0" />
        <mxCell id="1" parent="0" />
        <mxCell id="2" value="IPHONE" style="swimlane;whiteSpace=wrap" parent="1" vertex="1">
          <mxGeometry x="70" y="40" width="270" height="260" as="geometry" />
        </mxCell>
        <mxCell id="7" value="- Modelo: String&#xa;- Cor: String&#xa;- Preco : Double&#xa;- Bateria: Double" style="" parent="2" vertex="1">
          <mxGeometry x="65" y="40" width="145" height="80" as="geometry" />
        </mxCell>
        <mxCell id="10" value="+Ligar ()&#xa;+Desligar()&#xa;+Carregar()" style="" parent="2" vertex="1">
          <mxGeometry x="65" y="150" width="135" height="80" as="geometry" />
        </mxCell>
        <mxCell id="11" value="" style="endArrow=open;strokeColor=#FF0000;endFill=1;rounded=0" parent="2" source="7" target="10" edge="1">
          <mxGeometry relative="1" as="geometry">
            <mxPoint x="120" y="130" as="sourcePoint" />
            <Array as="points" />
          </mxGeometry>
        </mxCell>
        <mxCell id="12" value="" style="edgeStyle=elbowEdgeStyle;elbow=horizontal;strokeColor=#FF0000;endArrow=open;endFill=1;rounded=0" parent="2" source="10" target="7" edge="1">
          <mxGeometry width="100" height="100" relative="1" as="geometry">
            <mxPoint x="160" y="290" as="sourcePoint" />
            <mxPoint x="260" y="190" as="targetPoint" />
            <Array as="points">
              <mxPoint x="30" y="250" />
            </Array>
          </mxGeometry>
        </mxCell>
        <mxCell id="3" value="Reprodutor Musical" style="swimlane;whiteSpace=wrap" parent="1" vertex="1">
          <mxGeometry x="630" y="40" width="350" height="170" as="geometry" />
        </mxCell>
        <mxCell id="Kb4KfKm9bMyrNAoyezp2-64" value="&amp;nbsp;+ reproduzirMusica(musica: String, volume: int)&lt;br&gt;+ pausarMusica()&lt;br&gt;+ proximaMusica()&lt;br&gt;+ musicaAnterior()&lt;br&gt;+ ajustarVolume(volume: int)&amp;nbsp;" style="text;html=1;strokeColor=none;fillColor=none;align=center;verticalAlign=middle;whiteSpace=wrap;rounded=0;" vertex="1" parent="3">
          <mxGeometry x="30" y="31" width="300" height="129" as="geometry" />
        </mxCell>
        <mxCell id="4" value="Aparelho Telefonico" style="swimlane;whiteSpace=wrap" parent="1" vertex="1">
          <mxGeometry x="510" y="320" width="270" height="260" as="geometry" />
        </mxCell>
        <mxCell id="Kb4KfKm9bMyrNAoyezp2-68" value="&lt;div&gt;+ fazerLigacao(numero: String)&lt;/div&gt;&lt;div&gt;+ atenderLigacao()&lt;/div&gt;&lt;div&gt;+ encerrarLigacao()&lt;/div&gt;&lt;div&gt;+ enviarMensagem(numero: String, texto: String)&lt;/div&gt;&lt;div&gt;+ receberMensagem(numero: String, texto: String)&amp;nbsp;&lt;/div&gt;" style="text;html=1;strokeColor=none;fillColor=none;align=center;verticalAlign=middle;whiteSpace=wrap;rounded=0;" vertex="1" parent="4">
          <mxGeometry x="30" y="30" width="210" height="190" as="geometry" />
        </mxCell>
        <mxCell id="Kb4KfKm9bMyrNAoyezp2-41" value="IPHONE 13" style="swimlane;whiteSpace=wrap" vertex="1" parent="1">
          <mxGeometry x="70" y="428" width="280" height="562" as="geometry" />
        </mxCell>
        <mxCell id="Kb4KfKm9bMyrNAoyezp2-42" value="- camera: String&#xa;- processador: String&#xa;- memoria : String" style="" vertex="1" parent="Kb4KfKm9bMyrNAoyezp2-41">
          <mxGeometry x="40" y="40" width="220" height="130" as="geometry" />
        </mxCell>
        <mxCell id="Kb4KfKm9bMyrNAoyezp2-45" value="+ ligar ()&#xa;+ desligar ()&#xa;+ carregar ()&#xa;+ reproduzirMusica (musica: String, &#xa;Volume: int&#xa;+ pausarMusica ()&#xa;+ musicaAnterior ()&#xa;+ ajustarVolume(volume : int)&#xa;+ fazerLigacao(numero: string)&#xa;+atenderLigacao&#xa;+ encerrarLigacao&#xa;+enviarMensagem&#xa;(numero:String, texto: String)&#xa;+atenderLiigacao ()&#xa;+encerrarLigacao ()&#xa;+enviarMensagem&#xa;(numero: String, texto:String)&#xa;+receberMensagem&#xa;(numero: String, textp: String)" style="" vertex="1" parent="Kb4KfKm9bMyrNAoyezp2-41">
          <mxGeometry x="40" y="230" width="220" height="300" as="geometry" />
        </mxCell>
        <mxCell id="Kb4KfKm9bMyrNAoyezp2-47" value="" style="edgeStyle=elbowEdgeStyle;elbow=horizontal;strokeColor=#FF0000;endArrow=open;endFill=1;rounded=0" edge="1" parent="Kb4KfKm9bMyrNAoyezp2-41" source="Kb4KfKm9bMyrNAoyezp2-45" target="Kb4KfKm9bMyrNAoyezp2-42">
          <mxGeometry width="100" height="100" relative="1" as="geometry">
            <mxPoint x="160" y="290" as="sourcePoint" />
            <mxPoint x="260" y="190" as="targetPoint" />
            <Array as="points">
              <mxPoint x="10" y="152" />
            </Array>
          </mxGeometry>
        </mxCell>
        <mxCell id="Kb4KfKm9bMyrNAoyezp2-59" value="NavegadorInternet" style="swimlane;whiteSpace=wrap" vertex="1" parent="1">
          <mxGeometry x="840" y="320" width="270" height="260" as="geometry" />
        </mxCell>
        <mxCell id="Kb4KfKm9bMyrNAoyezp2-69" value="&lt;div&gt;+ abrirSite(url: String)&lt;/div&gt;&lt;div&gt;+ fecharSite()&lt;/div&gt;&lt;div&gt;+ paginaAnterior()&lt;/div&gt;&lt;div&gt;+ proximaPagina()&lt;/div&gt;&lt;div&gt;+ atualizarPagina()&lt;/div&gt;" style="text;html=1;strokeColor=none;fillColor=none;align=center;verticalAlign=middle;whiteSpace=wrap;rounded=0;" vertex="1" parent="Kb4KfKm9bMyrNAoyezp2-59">
          <mxGeometry x="55" y="70" width="160" height="110" as="geometry" />
        </mxCell>
        <mxCell id="Kb4KfKm9bMyrNAoyezp2-60" value="" style="edgeStyle=elbowEdgeStyle;elbow=horizontal;strokeColor=#FF0000;endArrow=open;endFill=1;rounded=0;" edge="1" parent="1">
          <mxGeometry width="100" height="100" relative="1" as="geometry">
            <mxPoint x="200" y="420" as="sourcePoint" />
            <mxPoint x="200" y="310" as="targetPoint" />
            <Array as="points">
              <mxPoint x="200" y="370" />
            </Array>
          </mxGeometry>
        </mxCell>
        <mxCell id="Kb4KfKm9bMyrNAoyezp2-61" value="Implements" style="text;html=1;strokeColor=none;fillColor=none;align=center;verticalAlign=middle;whiteSpace=wrap;rounded=0;" vertex="1" parent="1">
          <mxGeometry x="210" y="350" width="60" height="30" as="geometry" />
        </mxCell>
        <mxCell id="Kb4KfKm9bMyrNAoyezp2-66" value="" style="edgeStyle=elbowEdgeStyle;elbow=horizontal;strokeColor=#FF0000;endArrow=open;endFill=1;rounded=0;" edge="1" parent="1">
          <mxGeometry width="100" height="100" relative="1" as="geometry">
            <mxPoint x="700" y="320" as="sourcePoint" />
            <mxPoint x="700" y="210" as="targetPoint" />
            <Array as="points">
              <mxPoint x="700" y="270" />
            </Array>
          </mxGeometry>
        </mxCell>
        <mxCell id="Kb4KfKm9bMyrNAoyezp2-67" value="" style="edgeStyle=elbowEdgeStyle;elbow=horizontal;strokeColor=#FF0000;endArrow=open;endFill=1;rounded=0;" edge="1" parent="1">
          <mxGeometry width="100" height="100" relative="1" as="geometry">
            <mxPoint x="920" y="320" as="sourcePoint" />
            <mxPoint x="920" y="210" as="targetPoint" />
            <Array as="points">
              <mxPoint x="920" y="270" />
            </Array>
          </mxGeometry>
        </mxCell>
        <mxCell id="Kb4KfKm9bMyrNAoyezp2-70" style="edgeStyle=orthogonalEdgeStyle;rounded=0;orthogonalLoop=1;jettySize=auto;html=1;exitX=0.75;exitY=1;exitDx=0;exitDy=0;entryX=0.75;entryY=0.667;entryDx=0;entryDy=0;entryPerimeter=0;" edge="1" parent="1" source="Kb4KfKm9bMyrNAoyezp2-61" target="Kb4KfKm9bMyrNAoyezp2-61">
          <mxGeometry relative="1" as="geometry" />
        </mxCell>
        <mxCell id="Kb4KfKm9bMyrNAoyezp2-71" value="Implements" style="text;html=1;strokeColor=none;fillColor=none;align=center;verticalAlign=middle;whiteSpace=wrap;rounded=0;" vertex="1" parent="1">
          <mxGeometry x="710" y="240" width="60" height="30" as="geometry" />
        </mxCell>
        <mxCell id="Kb4KfKm9bMyrNAoyezp2-72" value="Implements" style="text;html=1;strokeColor=none;fillColor=none;align=center;verticalAlign=middle;whiteSpace=wrap;rounded=0;" vertex="1" parent="1">
          <mxGeometry x="930" y="240" width="60" height="30" as="geometry" />
        </mxCell>
      </root>
    </mxGraphModel>
  </diagram>
</mxfile>
